<svg height="1333.3333" viewBox="0 0 1333.3333 1333.3333" width="1333.3333" xmlns="http://www.w3.org/2000/svg"><path d="m0 0 326.452-87.273-239.297-239.471 92.845-93.665 240.294 239.823 87.447-326.744 127.039 34.194-126.57 474.428-474.428 126.452z" transform="matrix(1.3333333 0 0 -1.3333333 .02039999949 656.893316911)"/><path d="m0 0-33.783-127.744 400.628-107.103 107.114-400.227 127.038 34.194-126.569 474.428z" transform="matrix(1.3333333 0 0 -1.3333333 531.9839867004 .00013333333)"/><path d="m0 0 127.038 34.194-126.569 474.428-474.428 126.452-33.783-127.744 400.628-107.102z" transform="matrix(1.3333333 0 0 -1.3333333 920.80144364663 1089.89303941934)"/></svg>